<svg width="770.8400146484374px" height="142.48001708984373px" xmlns="http://www.w3.org/2000/svg" viewBox="-135.42000732421872 3.7599914550781364 770.8400146484374 142.48001708984373" style="background: rgb(0, 0, 0) none repeat scroll 0% 0%;" preserveAspectRatio="xMidYMid"><defs><linearGradient id="editing-glowing-gradient" x1="0.4912737967813584" x2="0.5087262032186416" y1="0.9999238475781956" y2="0.00007615242180436521"><stop offset="0" stop-color="#16ff00"></stop><stop offset="1" stop-color="#16ff00"></stop></linearGradient><filter id="editing-glowing" x="-100%" y="-100%" width="300%" height="300%"><feGaussianBlur in="SourceGraphic" result="blur" stdDeviation="19.5"></feGaussianBlur><feMerge><feMergeNode in="blur"></feMergeNode><feMergeNode in="SourceGraphic"></feMergeNode></feMerge></filter></defs><g filter="url(#editing-glowing)"><g transform="translate(-25.365012764930725, 103.12500190734863)"><path d="M33.30-11.55L33.30-11.55L33.30-11.55Q34.73-9.75 34.73-6.83L34.73-6.83L34.73-6.83Q34.73-2.77 31.72-0.64L31.72-0.64L31.72-0.64Q28.72 1.50 24 1.50L24 1.50L24 1.50Q21.30 1.50 17.18 0.90L17.18 0.90L17.18 0.90Q9.07-0.38 6.60-0.38L6.60-0.38L6.60-0.38Q4.13-0.38 3.15-0.26L3.15-0.26L3.15-0.26Q2.17-0.15 0.60 0L0.60 0L9.82-49.50L42.15-49.50L42.15-49.50Q42.15-44.92 39.94-42.52L39.94-42.52L39.94-42.52Q37.73-40.13 33.38-40.13L33.38-40.13L33.38-40.13Q29.02-40.13 24.60-42.15L24.60-42.15L22.27-29.02L35.63-29.02L35.63-29.02Q35.63-25.05 33.67-22.84L33.67-22.84L33.67-22.84Q31.72-20.63 28.46-20.63L28.46-20.63L28.46-20.63Q25.20-20.63 23.18-21.38L23.18-21.38L23.18-21.38Q21.15-22.13 20.93-22.35L20.93-22.35L18.22-8.17L18.22-8.17Q20.02-7.95 23.40-7.95L23.40-7.95L23.40-7.95Q29.17-7.95 33.30-11.55ZM59.55-4.13L59.55-4.13L59.55-4.13Q57.23 1.50 49.80 1.50L49.80 1.50L49.80 1.50Q46.05 1.50 43.65-1.13L43.65-1.13L43.65-1.13Q41.70-3.30 41.70-5.77L41.70-5.77L41.70-5.77Q41.70-11.40 44.33-23.70L44.33-23.70L49.80-52.50L65.03-54L57.75-16.05L57.75-16.05Q56.48-10.50 56.48-8.55L56.48-8.55L56.48-8.55Q56.48-4.27 59.55-4.13ZM83.93-4.13L83.93-4.13L83.93-4.13Q81.60 1.50 74.18 1.50L74.18 1.50L74.18 1.50Q70.35 1.50 67.95-1.13L67.95-1.13L67.95-1.13Q65.93-3.45 65.93-5.77L65.93-5.77L65.93-5.77Q65.93-11.85 68.70-23.70L68.70-23.70L71.48-38.25L86.70-39.75L82.13-16.05L82.13-16.05Q80.85-10.50 80.85-8.55L80.85-8.55L80.85-8.55Q80.85-4.27 83.93-4.13ZM72.83-48.67L72.83-48.67L72.83-48.67Q72.83-51.60 75.26-53.17L75.26-53.17L75.26-53.17Q77.70-54.75 81.23-54.75L81.23-54.75L81.23-54.75Q84.75-54.75 86.89-53.17L86.89-53.17L86.89-53.17Q89.03-51.60 89.03-48.67L89.03-48.67L89.03-48.67Q89.03-45.75 86.66-44.25L86.66-44.25L86.66-44.25Q84.30-42.75 80.78-42.75L80.78-42.75L80.78-42.75Q77.25-42.75 75.04-44.25L75.04-44.25L75.04-44.25Q72.83-45.75 72.83-48.67ZM100.28 0.22L100.28 0.22L100.28 0.22Q97.88 1.50 94.58 1.50L94.58 1.50L94.58 1.50Q91.28 1.50 89.48-0.19L89.48-0.19L89.48-0.19Q87.68-1.88 87.68-5.14L87.68-5.14L87.68-5.14Q87.68-8.40 89.96-11.59L89.96-11.59L89.96-11.59Q92.25-14.77 95.66-16.57L95.66-16.57L95.66-16.57Q99.08-18.38 101.48-19.43L101.48-19.43L96.75-30.30L96.75-30.30Q95.48-33.07 93.08-33.07L93.08-33.07L92.48-33L92.25-33L92.25-33Q92.70-35.63 95.78-37.65L95.78-37.65L95.78-37.65Q98.85-39.75 102.38-39.75L102.38-39.75L102.38-39.75Q108.08-39.75 110.70-34.05L110.70-34.05L111.30-32.85L114.53-24.90L114.53-24.90Q116.55-25.80 117.41-27.49L117.41-27.49L117.41-27.49Q118.28-29.17 118.28-32.51L118.28-32.51L118.28-32.51Q118.28-35.85 116.48-37.95L116.48-37.95L116.48-37.95Q119.33-39.75 123.08-39.75L123.08-39.75L123.08-39.75Q129.82-39.75 129.82-33.23L129.82-33.23L129.82-33.23Q129.82-26.10 120.90-21.97L120.90-21.97L116.40-19.88L120.45-9.45L120.45-9.45Q121.65-6.30 123.83-4.95L123.83-4.95L123.83-4.95Q124.72-4.35 125.78-4.27L125.78-4.27L125.78-4.27Q123.53-0.60 118.65 1.05L118.65 1.05L118.65 1.05Q117.15 1.50 115.13 1.50L115.13 1.50L115.13 1.50Q113.10 1.50 110.78 0.11L110.78 0.11L110.78 0.11Q108.45-1.27 107.63-3.45L107.63-3.45L103.50-14.17L103.50-14.17Q99.30-12.30 99.30-5.47L99.30-5.47L99.30-5.47Q99.30-2.32 100.28 0.22ZM149.85-4.13L149.85-4.13L149.85-4.13Q147.52 1.50 140.10 1.50L140.10 1.50L140.10 1.50Q136.27 1.50 133.88-1.13L133.88-1.13L133.88-1.13Q131.85-3.45 131.85-5.77L131.85-5.77L131.85-5.77Q131.85-11.85 134.63-23.70L134.63-23.70L137.40-38.25L152.63-39.75L148.05-16.05L148.05-16.05Q146.77-10.50 146.77-8.55L146.77-8.55L146.77-8.55Q146.77-4.27 149.85-4.13ZM138.75-48.67L138.75-48.67L138.75-48.67Q138.75-51.60 141.19-53.17L141.19-53.17L141.19-53.17Q143.63-54.75 147.15-54.75L147.15-54.75L147.15-54.75Q150.67-54.75 152.81-53.17L152.81-53.17L152.81-53.17Q154.95-51.60 154.95-48.67L154.95-48.67L154.95-48.67Q154.95-45.75 152.59-44.25L152.59-44.25L152.59-44.25Q150.22-42.75 146.70-42.75L146.70-42.75L146.70-42.75Q143.17-42.75 140.96-44.25L140.96-44.25L140.96-44.25Q138.75-45.75 138.75-48.67ZM179.70-21.07L179.70-21.07L179.70-21.07Q182.40-25.88 182.40-30.75L182.40-30.75L182.40-30.75Q182.40-33.98 180.07-33.98L180.07-33.98L180.07-33.98Q178.27-33.98 176.40-30.90L176.40-30.90L176.40-30.90Q174.45-27.82 173.85-23.85L173.85-23.85L169.95 0L154.42 1.50L162.07-38.25L174.45-39.75L173.10-32.17L173.10-32.17Q176.77-39.75 185.02-39.75L185.02-39.75L185.02-39.75Q189.38-39.75 191.74-37.50L191.74-37.50L191.74-37.50Q194.10-35.25 194.10-30.64L194.10-30.64L194.10-30.64Q194.10-26.02 191.06-23.10L191.06-23.10L191.06-23.10Q188.02-20.18 182.85-20.18L182.85-20.18L182.85-20.18Q180.60-20.18 179.70-21.07ZM243.67 1.50L243.67 1.50L243.67 1.50Q234.07 1.50 233.17-12.15L233.17-12.15L220.27-12.15L220.27-12.15Q218.77-8.70 217.72-5.70L217.72-5.70L215.77 0L205.27 0L228.90-49.50L245.02-49.50L248.17-13.05L248.17-13.05Q248.92-5.17 251.92-2.85L251.92-2.85L251.92-2.85Q249.75 1.50 243.67 1.50ZM226.72-27.15L222.60-17.63L232.95-17.63L232.05-36.90L232.05-38.92L226.72-27.15ZM312.22-12.53L312.22-12.53Q307.27-5.70 302.51-2.10L302.51-2.10L302.51-2.10Q297.75 1.50 292.84 1.50L292.84 1.50L292.84 1.50Q287.92 1.50 286.20 0.53L286.20 0.53L286.20-15.97L286.20-15.97Q281.92-4.58 274.27-0.15L274.27-0.15L274.27-0.15Q271.50 1.50 268.88 1.50L268.88 1.50L268.88 1.50Q263.85 1.50 261.67 0.53L261.67 0.53L261.67 0.53Q261.15-16.65 260.70-21.41L260.70-21.41L260.70-21.41Q260.25-26.18 259.88-29.10L259.88-29.10L259.88-29.10Q259.13-34.95 256.57-37.35L256.57-37.35L256.57-37.35Q259.80-39.75 264.30-39.75L264.30-39.75L264.30-39.75Q273-39.75 274.20-28.95L274.20-28.95L274.20-28.95Q274.50-26.40 274.50-23.70L274.50-23.70L274.50-23.70Q274.50-19.65 273.60-5.55L273.60-5.55L273.60-5.55Q275.40-6.38 277.31-9.34L277.31-9.34L277.31-9.34Q279.22-12.30 280.80-16.35L280.80-16.35L280.80-16.35Q284.32-25.72 284.32-33.82L284.32-33.82L284.32-33.82Q284.32-35.10 283.99-36.45L283.99-36.45L283.99-36.45Q283.65-37.80 283.27-38.17L283.27-38.17L283.27-38.17Q285.90-39.75 289.91-39.75L289.91-39.75L289.91-39.75Q293.92-39.75 295.84-37.01L295.84-37.01L295.84-37.01Q297.75-34.27 298.27-29.25L298.27-29.25L298.27-29.25Q298.88-22.88 298.88-19.05L298.88-19.05L298.88-19.05Q298.88-13.72 298.35-5.85L298.35-5.85L298.35-5.85Q302.10-8.55 305.17-17.40L305.17-17.40L305.17-17.40Q308.25-26.25 308.25-32.55L308.25-32.55L308.25-32.55Q308.25-35.32 307.80-36.98L307.80-36.98L307.80-36.98Q310.27-39.75 314.55-39.75L314.55-39.75L314.55-39.75Q317.17-39.75 319.09-38.32L319.09-38.32L319.09-38.32Q321-36.90 321-34.24L321-34.24L321-34.24Q321-31.57 320.21-28.72L320.21-28.72L320.21-28.72Q319.42-25.88 318.15-22.95L318.15-22.95L318.15-22.95Q315.67-17.10 312.22-12.53L312.22-12.53ZM353.40-12.67L353.40-12.67L353.40-12.67Q355.27-11.40 355.27-8.59L355.27-8.59L355.27-8.59Q355.27-5.77 353.85-3.97L353.85-3.97L353.85-3.97Q352.43-2.17 350.10-0.97L350.10-0.97L350.10-0.97Q345.30 1.50 340.13 1.50L340.13 1.50L340.13 1.50Q334.95 1.50 331.91 0.38L331.91 0.38L331.91 0.38Q328.88-0.75 326.85-2.85L326.85-2.85L326.85-2.85Q322.88-6.83 322.88-14.10L322.88-14.10L322.88-14.10Q322.88-25.43 329.02-32.32L329.02-32.32L329.02-32.32Q335.63-39.75 347.10-39.75L347.10-39.75L347.10-39.75Q354.23-39.75 357.75-36.75L357.75-36.75L357.75-36.75Q360.38-34.50 360.38-30.82L360.38-30.82L360.38-30.82Q360.38-17.63 337.57-17.63L337.57-17.63L337.57-17.63Q337.27-15.67 337.27-14.03L337.27-14.03L337.27-14.03Q337.27-10.57 338.81-9.26L338.81-9.26L338.81-9.26Q340.35-7.95 343.20-7.95L343.20-7.95L343.20-7.95Q346.05-7.95 349.09-9.26L349.09-9.26L349.09-9.26Q352.13-10.57 353.40-12.67ZM338.10-20.85L338.10-20.85L338.10-20.85Q343.43-20.85 346.50-24.15L346.50-24.15L346.50-24.15Q349.57-27.30 349.57-32.32L349.57-32.32L349.57-32.32Q349.57-34.05 348.94-34.99L348.94-34.99L348.94-34.99Q348.30-35.92 347.02-35.92L347.02-35.92L347.02-35.92Q345.75-35.92 344.66-35.44L344.66-35.44L344.66-35.44Q343.57-34.95 342.45-33.30L342.45-33.30L342.45-33.30Q339.68-29.55 338.10-20.85ZM385.35-26.32L385.35-26.32L385.35-26.32Q386.40-29.10 386.40-31.50L386.40-31.50L386.40-31.50Q386.40-35.92 382.80-35.92L382.80-35.92L382.80-35.92Q380.92-35.92 379.39-34.24L379.39-34.24L379.39-34.24Q377.85-32.55 377.85-30.45L377.85-30.45L377.85-30.45Q377.85-28.95 379.05-27.75L379.05-27.75L379.05-27.75Q380.77-26.10 385.20-23.40L385.20-23.40L385.20-23.40Q389.63-20.70 391.31-18.49L391.31-18.49L391.31-18.49Q393-16.27 393-13.24L393-13.24L393-13.24Q393-10.20 391.54-7.42L391.54-7.42L391.54-7.42Q390.07-4.65 387.45-2.70L387.45-2.70L387.45-2.70Q381.82 1.50 372.82 1.50L372.82 1.50L372.82 1.50Q367.95 1.50 364.20-1.05L364.20-1.05L364.20-1.05Q360.45-3.52 360.45-6.45L360.45-6.45L360.45-6.45Q360.45-9.38 362.59-11.10L362.59-11.10L362.59-11.10Q364.72-12.82 367.88-12.82L367.88-12.82L367.88-12.82Q371.02-12.82 372.97-11.63L372.97-11.63L372.97-11.63Q372-9.15 372-7.50L372-7.50L372-7.50Q372-2.55 376.20-2.55L376.20-2.55L376.20-2.55Q378-2.55 379.20-3.67L379.20-3.67L379.20-3.67Q380.40-4.80 380.40-6.75L380.40-6.75L380.40-6.75Q380.40-10.57 373.95-14.63L373.95-14.63L373.95-14.63Q368.70-18.07 367.50-19.43L367.50-19.43L367.50-19.43Q365.47-21.82 365.47-24.82L365.47-24.82L365.47-24.82Q365.47-27.82 366.90-30.67L366.90-30.67L366.90-30.67Q368.32-33.52 370.95-35.55L370.95-35.55L370.95-35.55Q376.42-39.75 385.95-39.75L385.95-39.75L385.95-39.75Q390.82-39.75 393.71-37.80L393.71-37.80L393.71-37.80Q396.60-35.85 396.60-32.55L396.60-32.55L396.60-32.55Q396.60-29.25 394.61-27.38L394.61-27.38L394.61-27.38Q392.63-25.50 389.02-25.50L389.02-25.50L389.02-25.50Q386.55-25.50 385.35-26.32ZM415.72 1.50L415.72 1.50L415.72 1.50Q399.22 1.50 399.22-14.03L399.22-14.03L399.22-14.03Q399.22-25.05 405.30-32.17L405.30-32.17L405.30-32.17Q411.75-39.75 422.92-39.75L422.92-39.75L422.92-39.75Q431.02-39.75 435.15-36L435.15-36L435.15-36Q439.27-32.25 439.27-24.38L439.27-24.38L439.27-24.38Q439.27-12.38 432.82-5.40L432.82-5.40L432.82-5.40Q426.52 1.50 415.72 1.50ZM417.67-31.13L417.67-31.13L417.67-31.13Q416.77-29.10 416.06-26.06L416.06-26.06L416.06-26.06Q415.35-23.02 414.45-18.22L414.45-18.22L414.45-18.22Q413.55-13.42 413.55-7.50L413.55-7.50L413.55-7.50Q413.55-5.55 414.19-4.27L414.19-4.27L414.19-4.27Q414.82-3 416.55-3L416.55-3L416.55-3Q418.27-3 419.36-3.82L419.36-3.82L419.36-3.82Q420.45-4.65 421.27-6.60L421.27-6.60L421.27-6.60Q422.77-10.05 423.97-16.46L423.97-16.46L423.97-16.46Q425.17-22.88 425.29-25.65L425.29-25.65L425.29-25.65Q425.40-28.43 425.40-30.49L425.40-30.49L425.40-30.49Q425.40-32.55 424.80-33.90L424.80-33.90L424.80-33.90Q424.20-35.25 422.51-35.25L422.51-35.25L422.51-35.25Q420.82-35.25 419.70-34.20L419.70-34.20L419.70-34.20Q418.57-33.15 417.67-31.13ZM497.70 1.50L497.70 1.50L497.70 1.50Q488.62 1.50 488.62-5.55L488.62-5.55L488.62-5.55Q488.62-8.63 489.94-14.59L489.94-14.59L489.94-14.59Q491.25-20.55 491.70-22.95L491.70-22.95L491.70-22.95Q492.75-28.43 492.75-30.15L492.75-30.15L492.75-30.15Q492.75-33.98 489.90-33.98L489.90-33.98L489.90-33.98Q488.02-33.98 486.22-31.39L486.22-31.39L486.22-31.39Q484.42-28.80 483.60-23.63L483.60-23.63L478.95 0L464.32 1.50L468.37-18.90L468.37-18.90Q469.05-22.27 469.65-26.10L469.65-26.10L469.65-26.10Q470.25-29.92 470.25-30.52L470.25-30.52L470.25-30.52Q470.25-33.98 467.70-33.98L467.70-33.98L467.70-33.98Q465.97-33.98 464.10-31.42L464.10-31.42L464.10-31.42Q462.22-28.88 461.17-23.63L461.17-23.63L456.60 0L441.82 1.50L449.70-38.25L461.92-39.75L460.65-32.17L460.65-32.17Q462.60-36.23 466.20-37.99L466.20-37.99L466.20-37.99Q469.80-39.75 475.42-39.75L475.42-39.75L475.42-39.75Q478.65-39.75 480.75-38.17L480.75-38.17L480.75-38.17Q482.85-36.60 483.52-34.05L483.52-34.05L483.52-34.05Q484.80-36.67 488.06-38.21L488.06-38.21L488.06-38.21Q491.32-39.75 495.34-39.75L495.34-39.75L495.34-39.75Q499.35-39.75 501.34-38.89L501.34-38.89L501.34-38.89Q503.32-38.02 504.52-36.60L504.52-36.60L504.52-36.60Q506.55-33.98 506.55-29.17L506.55-29.17L506.55-29.17Q506.55-24.45 504.52-14.63L504.52-14.63L504.52-14.63Q503.47-9.82 503.47-8.06L503.47-8.06L503.47-8.06Q503.47-6.30 504.49-5.25L504.49-5.25L504.49-5.25Q505.50-4.20 507.00-4.05L507.00-4.05L507.00-4.05Q506.25-1.50 503.66 0L503.66 0L503.66 0Q501.07 1.50 497.70 1.50ZM543.15-12.67L543.15-12.67L543.15-12.67Q545.02-11.40 545.02-8.59L545.02-8.59L545.02-8.59Q545.02-5.77 543.60-3.97L543.60-3.97L543.60-3.97Q542.17-2.17 539.85-0.97L539.85-0.97L539.85-0.97Q535.05 1.50 529.88 1.50L529.88 1.50L529.88 1.50Q524.70 1.50 521.66 0.38L521.66 0.38L521.66 0.38Q518.63-0.75 516.60-2.85L516.60-2.85L516.60-2.85Q512.63-6.83 512.63-14.10L512.63-14.10L512.63-14.10Q512.63-25.43 518.77-32.32L518.77-32.32L518.77-32.32Q525.38-39.75 536.85-39.75L536.85-39.75L536.85-39.75Q543.97-39.75 547.50-36.75L547.50-36.75L547.50-36.75Q550.13-34.50 550.13-30.82L550.13-30.82L550.13-30.82Q550.13-17.63 527.32-17.63L527.32-17.63L527.32-17.63Q527.02-15.67 527.02-14.03L527.02-14.03L527.02-14.03Q527.02-10.57 528.56-9.26L528.56-9.26L528.56-9.26Q530.10-7.95 532.95-7.95L532.95-7.95L532.95-7.95Q535.80-7.95 538.84-9.26L538.84-9.26L538.84-9.26Q541.88-10.57 543.15-12.67ZM527.85-20.85L527.85-20.85L527.85-20.85Q533.17-20.85 536.25-24.15L536.25-24.15L536.25-24.15Q539.32-27.30 539.32-32.32L539.32-32.32L539.32-32.32Q539.32-34.05 538.69-34.99L538.69-34.99L538.69-34.99Q538.05-35.92 536.77-35.92L536.77-35.92L536.77-35.92Q535.50-35.92 534.41-35.44L534.41-35.44L534.41-35.44Q533.32-34.95 532.20-33.30L532.20-33.30L532.20-33.30Q529.42-29.55 527.85-20.85Z" fill="url(#editing-glowing-gradient)"></path></g></g><style>text {
  font-size: 64px;
  font-family: Arial Black;
  dominant-baseline: central;
  text-anchor: middle;
}</style></svg>